# Blender v2.79 (sub 0) OBJ File: ''
# www.blender.org
o Plane
v -1.075341 1.095094 0.053367
v -1.075341 -0.904906 0.053367
v 0.924659 1.095094 0.053367
v 0.924659 -0.904906 0.053367
v -0.075341 1.095094 0.053367
v -1.075341 0.095094 0.053367
v -0.075341 -0.904906 0.053367
v 0.924659 0.095094 0.053367
v -0.075341 0.095094 0.053367
vt 0.500000 0.999900
vt 0.999900 0.500000
vt 0.500000 0.500000
vt 0.999900 0.000100
vt 0.500000 0.000100
vt 0.000100 0.500000
vt 0.000100 0.000100
vt 0.000100 0.999900
vt 0.999900 0.999900
vn 0.0000 0.0000 -1.0000
s off
f 8/1/1 7/2/1 9/3/1
f 9/3/1 2/4/1 6/5/1
f 5/6/1 6/5/1 1/7/1
f 3/8/1 9/3/1 5/6/1
f 8/1/1 4/9/1 7/2/1
f 9/3/1 7/2/1 2/4/1
f 5/6/1 9/3/1 6/5/1
f 3/8/1 8/1/1 9/3/1
